REM DIRINDEX 1\5,1\2\6,1\2\7,1\3\8,1\3\9,1\4\10,1\4\11,1\4\12
REM DIRNAME cjc026,folder01,folder02,folder03,folder04,folder05,folder06,folder07,folder08,folder09,folder10,folder11
TITLE ""
FILE "EJE_DB3000_5th_2A_31.mp3" MP3
  TRACK 01 AUDIO
    TITLE "0:"
    INDEX 01 00:00:00
  TRACK 02 AUDIO
    TITLE "10:cjc026_07725"
    INDEX 01 00:00:08
  TRACK 03 AUDIO
    TITLE "0:"
    INDEX 01 00:01:11
  TRACK 04 AUDIO
    TITLE "11:cjc026_07726"
    INDEX 01 00:01:49
  TRACK 05 AUDIO
    TITLE "0:"
    INDEX 01 00:02:60
  TRACK 06 AUDIO
    TITLE "12:cjc026_07727"
    INDEX 01 00:03:18
  TRACK 07 AUDIO
    TITLE "0:"
    INDEX 01 00:04:24
  TRACK 08 AUDIO
    TITLE "10:cjc026_07728"
    INDEX 01 00:04:59
  TRACK 09 AUDIO
    TITLE "0:"
    INDEX 01 00:06:03
  TRACK 10 AUDIO
    TITLE "11:cjc026_07729"
    INDEX 01 00:06:38
  TRACK 11 AUDIO
    TITLE "0:"
    INDEX 01 00:07:63
  TRACK 12 AUDIO
    TITLE "12:cjc026_07730"
    INDEX 01 00:08:23
  TRACK 13 AUDIO
    TITLE "0:"
    INDEX 01 00:09:43
  TRACK 14 AUDIO
    TITLE "10:cjc026_07731"
    INDEX 01 00:10:06
  TRACK 15 AUDIO
    TITLE "0:"
    INDEX 01 00:11:25
  TRACK 16 AUDIO
    TITLE "11:cjc026_07732"
    INDEX 01 00:11:63
  TRACK 17 AUDIO
    TITLE "0:"
    INDEX 01 00:13:18
  TRACK 18 AUDIO
    TITLE "12:cjc026_07733"
    INDEX 01 00:13:56
  TRACK 19 AUDIO
    TITLE "0:"
    INDEX 01 00:15:00
  TRACK 20 AUDIO
    TITLE "10:cjc026_07734"
    INDEX 01 00:15:36
  TRACK 21 AUDIO
    TITLE "0:"
    INDEX 01 00:16:52
  TRACK 22 AUDIO
    TITLE "11:cjc026_07735"
    INDEX 01 00:17:15
  TRACK 23 AUDIO
    TITLE "0:"
    INDEX 01 00:18:59
  TRACK 24 AUDIO
    TITLE "12:cjc026_07736"
    INDEX 01 00:19:19
  TRACK 25 AUDIO
    TITLE "0:"
    INDEX 01 00:20:33
  TRACK 26 AUDIO
    TITLE "10:cjc026_07737"
    INDEX 01 00:20:68
  TRACK 27 AUDIO
    TITLE "0:"
    INDEX 01 00:22:21
  TRACK 28 AUDIO
    TITLE "11:cjc026_07738"
    INDEX 01 00:22:56
  TRACK 29 AUDIO
    TITLE "0:"
    INDEX 01 00:24:00
  TRACK 30 AUDIO
    TITLE "12:cjc026_07739"
    INDEX 01 00:24:36
  TRACK 31 AUDIO
    TITLE "0:"
    INDEX 01 00:25:63
  TRACK 32 AUDIO
    TITLE "10:cjc026_07740"
    INDEX 01 00:26:23
  TRACK 33 AUDIO
    TITLE "0:"
    INDEX 01 00:27:35
  TRACK 34 AUDIO
    TITLE "11:cjc026_07741"
    INDEX 01 00:27:72
  TRACK 35 AUDIO
    TITLE "0:"
    INDEX 01 00:29:20
  TRACK 36 AUDIO
    TITLE "12:cjc026_07742"
    INDEX 01 00:29:55
  TRACK 37 AUDIO
    TITLE "0:"
    INDEX 01 00:30:69
  TRACK 38 AUDIO
    TITLE "10:cjc026_07743"
    INDEX 01 00:31:32
  TRACK 39 AUDIO
    TITLE "0:"
    INDEX 01 00:32:59
  TRACK 40 AUDIO
    TITLE "11:cjc026_07744"
    INDEX 01 00:33:22
  TRACK 41 AUDIO
    TITLE "0:"
    INDEX 01 00:34:52
  TRACK 42 AUDIO
    TITLE "12:cjc026_07745"
    INDEX 01 00:35:15
  TRACK 43 AUDIO
    TITLE "0:"
    INDEX 01 00:36:43
  TRACK 44 AUDIO
    TITLE "10:cjc026_07746"
    INDEX 01 00:37:03
  TRACK 45 AUDIO
    TITLE "0:"
    INDEX 01 00:38:25
  TRACK 46 AUDIO
    TITLE "11:cjc026_07747"
    INDEX 01 00:38:63
  TRACK 47 AUDIO
    TITLE "0:"
    INDEX 01 00:40:18
  TRACK 48 AUDIO
    TITLE "12:cjc026_07748"
    INDEX 01 00:40:53
  TRACK 49 AUDIO
    TITLE "0:"
    INDEX 01 00:42:00
  TRACK 50 AUDIO
    TITLE "10:cjc026_07749"
    INDEX 01 00:42:36
  TRACK 51 AUDIO
    TITLE "0:"
    INDEX 01 00:43:52
  TRACK 52 AUDIO
    TITLE "11:cjc026_07750"
    INDEX 01 00:44:12
  TRACK 53 AUDIO
    TITLE "0:"
    INDEX 01 00:45:37
  TRACK 54 AUDIO
    TITLE "12:cjc026_07751"
    INDEX 01 00:45:72
  TRACK 55 AUDIO
    TITLE "0:"
    INDEX 01 00:47:12
  TRACK 56 AUDIO
    TITLE "10:cjc026_07752"
    INDEX 01 00:47:49
  TRACK 57 AUDIO
    TITLE "0:"
    INDEX 01 00:48:72
  TRACK 58 AUDIO
    TITLE "11:cjc026_07753"
    INDEX 01 00:49:34
  TRACK 59 AUDIO
    TITLE "0:"
    INDEX 01 00:50:67
  TRACK 60 AUDIO
    TITLE "12:cjc026_07754"
    INDEX 01 00:51:27
  TRACK 61 AUDIO
    TITLE "0:"
    INDEX 01 00:52:50
  TRACK 62 AUDIO
    TITLE "10:cjc026_07755"
    INDEX 01 00:53:12
  TRACK 63 AUDIO
    TITLE "0:"
    INDEX 01 00:54:40
  TRACK 64 AUDIO
    TITLE "11:cjc026_07756"
    INDEX 01 00:55:00
  TRACK 65 AUDIO
    TITLE "0:"
    INDEX 01 00:56:17
  TRACK 66 AUDIO
    TITLE "12:cjc026_07757"
    INDEX 01 00:56:55
  TRACK 67 AUDIO
    TITLE "0:"
    INDEX 01 00:58:07
  TRACK 68 AUDIO
    TITLE "10:cjc026_07758"
    INDEX 01 00:58:42
  TRACK 69 AUDIO
    TITLE "0:"
    INDEX 01 00:59:51
  TRACK 70 AUDIO
    TITLE "11:cjc026_07759"
    INDEX 01 01:00:14
  TRACK 71 AUDIO
    TITLE "0:"
    INDEX 01 01:01:33
  TRACK 72 AUDIO
    TITLE "12:cjc026_07760"
    INDEX 01 01:01:69
  TRACK 73 AUDIO
    TITLE "0:"
    INDEX 01 01:03:02
